<svg id="eaJlomPg9IX1" xmlns="http://www.w3.org/2000/svg" xmlns:xlink="http://www.w3.org/1999/xlink" viewBox="0 0 600 800" shape-rendering="geometricPrecision" text-rendering="geometricPrecision" project-id="87fdf5347fa048a797faad259fa075f5" export-id="6df0e8538a294483a2c745875aa2eace" cached="false"><rect width="600" height="800" rx="0" ry="0" stroke-width="0"/><ellipse rx="5" ry="5" transform="translate(331.174064 724.851782)" fill="#56585c" stroke-width="0"/><ellipse rx="5" ry="5" transform="translate(323.417504 405)" fill="#56585c" stroke-width="0"/><ellipse rx="5" ry="5" transform="translate(515.785413 486.789851)" fill="#56585c" stroke-width="0"/><ellipse rx="5" ry="5" transform="translate(190.45558 216.159919)" fill="#56585c" stroke-width="0"/><ellipse rx="5" ry="5" transform="translate(54.398032 331.794042)" fill="#56585c" stroke-width="0"/><ellipse rx="5" ry="5" transform="translate(372.643712 206.159919)" fill="#56585c" stroke-width="0"/><ellipse rx="5" ry="5" transform="translate(484.709059 116.263728)" fill="#56585c" stroke-width="0"/><ellipse rx="5" ry="5" transform="translate(80.273011 690.821019)" fill="#56585c" stroke-width="0"/><ellipse rx="5" ry="5" transform="translate(232.10006 630.063609)" fill="#56585c" stroke-width="0"/><ellipse rx="5" ry="5" transform="translate(44.398032 134.395042)" fill="#56585c" stroke-width="0"/><ellipse rx="5" ry="5" transform="translate(454.222245 336.794042)" fill="#56585c" stroke-width="0"/><ellipse rx="5" ry="5" transform="translate(176.41245 326.794042)" fill="#56585c" stroke-width="0"/><ellipse rx="5" ry="5" transform="translate(341.174064 530.699775)" fill="#56585c" stroke-width="0"/><ellipse rx="5" ry="5" transform="translate(444.222245 663.745867)" fill="#56585c" stroke-width="0"/><ellipse rx="5" ry="5" transform="translate(111.656555 69.259305)" fill="#56585c" stroke-width="0"/><ellipse rx="5" ry="5" transform="translate(300 74.259305)" fill="#56585c" stroke-width="0"/><ellipse rx="5" ry="5" transform="translate(111.656555 520.699775)" fill="#56585c" stroke-width="0"/><ellipse rx="5" ry="5" transform="translate(186.41245 465.453369)" fill="#56585c" stroke-width="0"/><ellipse rx="5" ry="5" transform="translate(290 285.871302)" fill="#56585c" stroke-width="0"/></svg>
