<svg width="25" height="25" viewBox="0 0 25 25" fill="none" xmlns="http://www.w3.org/2000/svg">
<rect width="25" height="25" fill="black"/>
<rect x="12" y="3" width="1" height="5" fill="#D9D9D9"/>
<rect x="12" y="17" width="1" height="5" fill="#D9D9D9"/>
<rect x="7" y="9" width="1" height="1" fill="#D9D9D9"/>
<rect x="6" y="8" width="1" height="1" fill="#D9D9D9"/>
<rect x="5" y="7" width="1" height="1" fill="#D9D9D9"/>
<rect x="4" y="6" width="1" height="1" fill="#D9D9D9"/>
<rect x="3" y="5" width="1" height="1" fill="#D9D9D9"/>
<rect width="1.00619" height="0.98999" transform="matrix(-0.0100032 0.99995 -0.999947 -0.0103333 18 8.99387)" fill="#D9D9D9"/>
<rect width="1.00619" height="0.98999" transform="matrix(-0.0100032 0.99995 -0.999947 -0.0103333 19 7.99796)" fill="#D9D9D9"/>
<rect width="1.00619" height="0.98999" transform="matrix(-0.0100032 0.99995 -0.999947 -0.0103333 20 7.00204)" fill="#D9D9D9"/>
<rect width="1.00619" height="0.98999" transform="matrix(-0.0100032 0.99995 -0.999947 -0.0103333 21 6.00613)" fill="#D9D9D9"/>
<rect width="1.00619" height="0.98999" transform="matrix(-0.0100651 0.999949 -0.999947 -0.0102697 22 5.01016)" fill="#D9D9D9"/>
<rect width="1.00619" height="0.98999" transform="matrix(-0.0100032 0.99995 -0.999947 -0.0103333 4 18.9939)" fill="#D9D9D9"/>
<rect width="1.00619" height="0.98999" transform="matrix(-0.0100032 0.99995 -0.999947 -0.0103333 5 17.998)" fill="#D9D9D9"/>
<rect width="1.00619" height="0.98999" transform="matrix(-0.0100032 0.99995 -0.999947 -0.0103333 6 17.002)" fill="#D9D9D9"/>
<rect width="1.00619" height="0.98999" transform="matrix(-0.0100032 0.99995 -0.999947 -0.0103333 7 16.0061)" fill="#D9D9D9"/>
<rect width="1.00619" height="0.98999" transform="matrix(-0.0100651 0.999949 -0.999947 -0.0102697 8 15.0102)" fill="#D9D9D9"/>
<rect x="21" y="19" width="1" height="1" fill="#D9D9D9"/>
<rect x="20" y="18" width="1" height="1" fill="#D9D9D9"/>
<rect x="19" y="17" width="1" height="1" fill="#D9D9D9"/>
<rect x="18" y="16" width="1" height="1" fill="#D9D9D9"/>
<rect x="17" y="15" width="1" height="1" fill="#D9D9D9"/>
<rect x="3" y="12" width="5" height="1" fill="#D9D9D9"/>
<rect x="17" y="12" width="5" height="1" fill="#D9D9D9"/>
</svg>

